Coordinates
version=1
nRows=17
nColumns=23
inDegrees=yes

Units are S.I. units (second, meters, Newtons, ...)
If the header above contains a line with 'inDegrees', this indicates whether rotational values are in degrees (yes) or radians (no).

endheader
time	pelvis_tilt	pelvis_list	pelvis_rotation	pelvis_tx	pelvis_ty	pelvis_tz	hip_flexion_r	hip_adduction_r	hip_rotation_r	knee_angle_r	knee_angle_r_beta	ankle_angle_r	subtalar_angle_r	mtp_angle_r	hip_flexion_l	hip_adduction_l	hip_rotation_l	knee_angle_l	knee_angle_l_beta	ankle_angle_l	subtalar_angle_l	mtp_angle_l
     15.00000000	     -6.56041924	      8.46359502	      3.61689279	      2.18861333	      1.01263828	      1.00124930	     -1.22984986	    -15.46735771	    -17.64825480	     87.04734932	      1.51926285	    -20.65320121	    -22.97957930	      0.00000000	     31.94175837	      8.79866646	    -16.06201810	     35.02526011	      0.61130611	     11.13120056	      0.35309972	      0.00000000
     15.00666667	     -5.94445107	      8.81406330	      3.83691692	      2.18677533	      1.00782152	      1.00112971	     -0.25619684	    -16.02916717	    -16.94847499	     89.93148564	      1.56960053	    -20.35299859	    -23.81584126	      0.00000000	     31.44397288	      9.18458890	    -15.33386423	     37.82741706	      0.66021298	     12.73974497	     -0.73341740	      0.00000000
     15.01333333	     -6.96762708	      8.93810613	      3.95357566	      2.18373910	      1.00103894	      1.00104362	      3.03641188	    -16.37919655	    -15.58079207	     93.18271292	      1.62634515	    -19.93221094	    -24.65713394	      0.00000000	     32.75836615	      9.39191522	    -14.57242487	     40.57968535	      0.70824912	     14.49316509	     -1.83578854	      0.00000000
     15.02000000	     -6.39564240	      9.16406408	      4.12258740	      2.18170167	      0.99723715	      1.00090705	      4.27490554	    -16.71504698	    -14.65993481	     95.71479049	      1.67053824	    -19.47006145	    -25.25097723	      0.00000000	     31.93021596	      9.74464129	    -13.76224196	     42.76204224	      0.74633843	     16.49470935	     -2.54787811	      0.00000000
     15.02666667	     -7.36342574	      9.22217915	      4.05212776	      2.17860401	      0.99167793	      1.00100049	      7.74322622	    -16.86005513	    -13.00193762	     98.53445214	      1.71975062	    -18.83393007	    -25.65015703	      0.00000000	     32.75525246	      9.79873534	    -13.33258642	     44.82297486	      0.78230849	     18.51889181	     -2.79864363	      0.00000000
     15.03333333	     -7.51954253	      9.20644721	      4.00130836	      2.17606614	      0.98808453	      1.00114510	     10.18751169	    -16.78920471	    -11.58058779	    100.81761604	      1.75959934	    -18.13954611	    -25.93425348	      0.00000000	     32.37149962	      9.79842181	    -12.82120198	     46.39505914	      0.80974654	     20.56792695	     -2.86174546	      0.00000000
     15.04000000	     -7.66980376	      9.11685519	      3.84805492	      2.17359465	      0.98518071	      1.00141761	     12.70428137	    -16.53966636	    -10.06307957	    102.82850129	      1.79469591	    -17.43126536	    -26.12655392	      0.00000000	     31.76532647	      9.65217157	    -12.46792004	     47.60763887	      0.83091005	     22.56848445	     -2.68129399	      0.00000000
     15.04666667	     -7.76868090	      8.88254881	      3.59566421	      2.17123571	      0.98308043	      1.00186598	     15.20789278	    -16.01305507	     -8.52709056	    104.52097727	      1.82423519	    -16.64910031	    -26.19694937	      0.00000000	     30.89165555	      9.28663209	    -12.22738831	     48.47076900	      0.84597451	     24.42049830	     -2.31444469	      0.00000000
     15.05333333	     -7.73388451	      8.59595309	      3.34385012	      2.16918861	      0.98189714	      1.00221657	     17.49667081	    -15.39506351	     -7.12568905	    105.85433996	      1.84750676	    -15.86412295	    -26.19210196	      0.00000000	     29.64280200	      8.89158410	    -11.98242579	     48.94467969	      0.85424581	     26.04306425	     -2.02767939	      0.00000000
     15.06000000	     -7.97520556	      8.25009385	      2.91909308	      2.16715857	      0.98097614	      1.00283818	     20.17610599	    -14.56077158	     -5.56642213	    106.95494519	      1.86671594	    -14.98608806	    -26.13796824	      0.00000000	     28.52512973	      8.29282947	    -12.08071307	     49.10590092	      0.85705965	     27.37031219	     -1.40638101	      0.00000000
     15.06666667	     -8.32791109	      7.92579106	      2.49577461	      2.16537924	      0.98060626	      1.00333390	     22.90615451	    -13.73510587	     -4.10699204	    107.74386175	      1.88048514	    -14.15137771	    -26.03934020	      0.00000000	     27.33478789	      7.76017574	    -12.20493238	     48.90372355	      0.85353099	     28.26245728	     -0.83741010	      0.00000000
     15.07333333	     -8.67831159	      7.59713298	      2.06107524	      2.16393111	      0.98089547	      1.00372645	     25.53538313	    -12.87213236	     -2.76908934	    108.19097730	      1.88828877	    -13.33378912	    -25.81522857	      0.00000000	     25.97200568	      7.27098850	    -12.33041132	     48.37235400	      0.84425684	     28.79342988	     -0.47236470	      0.00000000
     15.08000000	     -9.04337451	      7.23979590	      1.64187974	      2.16290062	      0.98181807	      1.00406787	     28.04158232	    -11.96931004	     -1.60951618	    108.29317111	      1.89007239	    -12.42411958	    -25.60049473	      0.00000000	     24.47005888	      6.79434230	    -12.44956029	     47.55478172	      0.82998752	     29.05216598	     -0.09531898	      0.00000000
     15.08666667	     -9.63633681	      6.91096652	      1.15445814	      2.16207149	      0.98299255	      1.00459982	     30.73988860	    -10.99538502	     -0.45921390	    108.13434462	      1.88730035	    -11.55982688	    -25.33876279	      0.00000000	     23.11170857	      6.27960403	    -12.82469222	     46.54638544	      0.81238768	     29.18897446	      0.73949096	      0.00000000
     15.09333333	     -9.97488443	      6.43226554	      0.71817671	      2.16188403	      0.98529741	      1.00508679	     32.90825910	     -9.89143686	      0.35566442	    107.53857776	      1.87690225	    -10.68159616	    -24.99952937	      0.00000000	     21.33581427	      5.73312141	    -12.95105721	     45.26432133	      0.79001144	     29.19170367	      1.15858923	      0.00000000
     15.10000000	     -9.80403927	      5.52188595	      0.21760062	      2.16255048	      0.98906527	      1.00604847	     34.19918475	     -8.28703440	      0.72792131	    106.42171575	      1.85740934	     -9.94750493	    -24.79142121	      0.00000000	     18.89399033	      4.47919934	    -13.59863881	     43.93387895	      0.76679084	     29.20590394	      3.04363448	      0.00000000
     15.10666667	    -10.17026937	      4.95900102	     -0.28828363	      2.16312495	      0.99240824	      1.00683241	     36.08665012	     -7.05177663	      1.27738926	    105.22292586	      1.83648650	     -9.01581869	    -24.30221065	      0.00000000	     17.00388928	      3.81221516	    -14.00987918	     42.37363758	      0.73955949	     29.03073969	      3.84955288	      0.00000000
